<svg width="637" height="100" viewBox="0 0 637 100" fill="none" xmlns="http://www.w3.org/2000/svg">
<path d="M94.4423 77.4867C90.1969 83.9323 84.5105 89.3398 77.817 93.2443C70.4417 97.5363 61.8424 100.015 52.7008 99.9998C41.4985 99.9998 31.1638 96.3122 22.8279 90.0835C19.4966 87.6044 16.4907 84.707 13.8877 81.4842L17.9472 78.1994C20.2868 81.0968 22.9983 83.6844 25.9732 85.9156C33.426 91.478 42.676 94.7783 52.7008 94.7783C60.9128 94.7783 68.5824 92.5781 75.183 88.72C80.1566 85.8226 84.5105 81.9955 88.0277 77.4712H94.4423V77.4867Z" fill="#2FB352"/>
<path d="M23.8649 88.1469L19.8984 95.5841C19.449 96.4363 18.194 96.3278 17.8841 95.4137L12.2597 78.9433C11.9963 78.1841 12.6161 77.4093 13.4218 77.4868L30.0161 79.2687C30.9303 79.3616 31.3331 80.4772 30.6824 81.1435L24.0508 87.899C23.9734 87.9764 23.9114 88.0694 23.8649 88.1469Z" fill="#2FB352"/>
<path d="M12.1982 22.5132C16.4437 16.0675 22.1301 10.66 28.8236 6.7555C36.1988 2.46359 44.7982 0 53.9398 0C65.1421 0 75.4768 3.68763 83.8127 9.91632C87.144 12.3954 90.1499 15.2928 92.7529 18.5156L88.6934 21.8004C86.3538 18.903 83.6423 16.3155 80.6674 14.0843C73.2146 8.52184 63.9646 5.22157 53.9398 5.22157C45.7278 5.22157 38.0582 7.42175 31.4576 11.2798C26.4839 14.1772 22.1301 18.0043 18.6129 22.5286H12.1982V22.5132Z" fill="#2FB352"/>
<path d="M82.7593 11.8532L86.7258 4.416C87.1751 3.56381 88.4301 3.67227 88.74 4.58643L94.3644 21.0568C94.6278 21.8161 94.0081 22.5908 93.2024 22.5133L76.608 20.7314C75.6939 20.6385 75.291 19.5229 75.9418 18.8566L82.5733 12.1011C82.6508 12.0237 82.7128 11.9307 82.7593 11.8532Z" fill="#2FB352"/>
<path d="M105.691 41.2924C103.708 38.1006 101.663 34.9398 99.7572 31.7015C98.5176 29.6252 96.7823 28.773 94.4271 28.7885C89.2675 28.8195 84.1235 28.835 78.9639 28.804L85.2855 38.8753C87.6406 42.6249 87.3772 47.4436 84.6658 50.8988C88.1365 50.8059 90.1507 48.6367 92.1805 45.9252C94.2257 48.5437 96.4569 50.7439 100.191 50.8059V53.5174C100.191 57.143 100.191 60.7687 100.191 64.4098C100.175 65.262 100.129 66.1607 99.9431 66.9974C99.5712 68.6553 98.6726 69.3835 97.0147 69.5539C96.8907 69.5694 96.7513 69.5694 96.6118 69.5694H80.9626V72.3739C86.1377 72.3894 91.3128 72.4049 96.5034 72.3429C100.439 72.2964 102.5 70.2202 102.902 66.2846C102.949 65.7578 102.933 65.2155 102.933 64.6732C102.933 60.3813 102.933 56.0894 102.933 51.782C102.933 51.2552 102.98 50.7284 102.995 50.2481C103.507 49.8762 103.956 49.5818 104.374 49.241C106.792 47.1647 107.318 43.9574 105.676 41.2924H105.691Z" fill="#8B57C8"/>
<path d="M6.54288 66.5479C6.4809 66.207 6.4809 65.8661 6.46541 65.5407C6.46541 65.1999 6.46541 64.8745 6.46541 64.5336V52.8354C6.46541 52.2467 6.51189 51.6579 6.55838 50.8367C10.0601 50.7127 12.3067 48.528 14.445 45.9405C16.4127 48.59 18.396 50.8677 21.9907 50.9142C19.2637 47.4589 19.0003 42.6247 21.3554 38.8751L27.677 28.8039C22.5794 28.8193 17.4973 28.8193 12.3997 28.7884C10.0136 28.7574 8.30923 29.6715 7.06969 31.7168C5.10192 34.9241 3.04118 38.0539 1.01143 41.2302C-0.754913 44.0192 -0.166134 47.397 2.4524 49.4422C2.82426 49.7366 3.21162 49.9845 3.72293 50.3409V52.696C3.72293 57.1273 3.72292 61.5587 3.73842 65.9901C3.76941 69.7397 6.18651 72.3582 10.0136 72.3582C15.2352 72.3582 20.4412 72.3892 25.6628 72.3892V69.5692C20.4102 69.5692 15.1732 69.5692 9.92063 69.5537C7.90638 69.5383 6.88375 68.5311 6.54288 66.5479Z" fill="#8B57C8"/>
<path d="M25.3532 43.7557C25.2912 42.6711 25.7405 41.4935 26.4223 40.4089C29.2423 35.9775 32.0157 31.4997 34.9596 27.1458C36.2921 25.178 38.2599 24.0005 40.7545 24.0005C49.1214 24.0005 57.4883 24.0005 65.8397 24.0005C68.3653 24.0005 70.333 25.178 71.6965 27.2233C74.5165 31.4687 77.1505 35.8381 80.0169 40.037C83.1933 44.6853 79.924 50.0463 74.7954 50.5267C70.364 50.945 67.0173 48.9462 64.2903 45.6615C63.9029 45.1966 63.593 44.6543 63.2831 44.1275C62.8803 43.4148 62.5549 43.5387 62.1521 44.143C61.6252 44.9642 61.1139 45.8164 60.4787 46.5446C56.1403 51.4873 49.5397 51.2084 45.5732 45.9404C45.2478 45.522 44.9689 45.0727 44.6745 44.6233C43.7914 43.2753 43.7759 43.2753 42.9547 44.5924C41.7616 46.4981 40.2432 48.0786 38.2444 49.1167C34.7892 50.9295 31.272 51.4253 27.8788 48.9772C26.1899 47.7687 25.3067 46.0643 25.3377 43.7247L25.3532 43.7557Z" fill="#8B57C8"/>
<path d="M53.2737 71.6144C48.5015 71.6144 43.7292 71.6144 38.957 71.6144C36.1835 71.6144 34.7891 70.2354 34.7891 67.5085C34.7891 63.3405 34.8201 59.188 34.7891 55.0201C34.7891 54.0284 34.975 53.5171 36.1061 53.3002C38.864 52.7889 41.1882 51.3634 43.2024 49.4421C43.6828 48.9928 43.9462 48.8689 44.473 49.4267C49.8185 55.113 56.6515 55.2215 62.028 49.6591C62.7407 48.9153 63.0661 49.0083 63.7168 49.6591C65.7311 51.5958 68.1017 52.9284 70.8752 53.3777C71.6499 53.5016 71.7584 53.827 71.7584 54.4778C71.7429 59.0021 71.7584 63.5419 71.7584 68.0662C71.7584 70.2045 70.3639 71.5834 68.2257 71.5834C63.252 71.5989 58.2784 71.5834 53.2892 71.5834L53.2737 71.6144Z" fill="#8B57C8"/>
<path d="M53.273 77.1613C48.3768 77.1613 43.4806 77.1613 38.5844 77.1613C34.6644 77.1613 31.9219 75.3485 30.3415 71.7538C30.0626 71.134 30.0316 70.4988 30.0316 69.848C30.0316 64.3785 30.0316 58.9091 30.0316 53.4396C30.0316 53.1142 29.8147 52.5409 30.3105 52.5254C30.9303 52.4944 30.7289 53.1142 30.7289 53.4706C30.7753 57.0962 30.8683 60.7374 30.7908 64.363C30.7598 65.6955 30.6514 66.9816 30.7908 68.3296C31.2557 72.8074 34.401 75.7823 38.9408 75.7048C48.3613 75.5189 57.7973 75.6738 67.2178 75.6274C68.8757 75.6274 70.4871 75.5344 71.9436 74.6667C74.4382 73.1793 75.6002 70.9016 75.6467 68.0507C75.7397 63.3249 75.7862 58.5837 75.8636 53.8579C75.8636 53.5325 75.8636 53.2072 75.8946 52.8818C75.9101 52.6494 76.0341 52.4944 76.282 52.5254C76.4679 52.5409 76.5454 52.6959 76.5454 52.8663C76.5454 53.1917 76.5609 53.5171 76.5609 53.8424C76.5609 58.8626 76.4524 63.8827 76.5609 68.9029C76.6848 74.3413 72.1605 77.1768 68.2869 77.1768C63.2668 77.1923 58.2467 77.1768 53.2265 77.1768L53.273 77.1613Z" fill="#8B57C8"/>
<path d="M133.844 27.3757H144.67L159.167 62.7615H159.739L174.237 27.3757H185.063V76.21H176.574V42.6603H176.121L162.625 76.0669H156.282L142.786 42.5887H142.333V76.21H133.844V27.3757ZM215.98 60.8062V39.5843H224.612V76.21H216.242V69.7003H215.861C215.034 71.751 213.675 73.4281 211.783 74.7316C209.907 76.0351 207.594 76.6869 204.844 76.6869C202.444 76.6869 200.322 76.1543 198.478 75.0893C196.65 74.0083 195.219 72.4425 194.186 70.3918C193.152 68.3253 192.636 65.8295 192.636 62.9045V39.5843H201.268V61.5692C201.268 63.8901 201.904 65.7341 203.175 67.1012C204.447 68.4683 206.116 69.1519 208.183 69.1519C209.454 69.1519 210.686 68.8419 211.879 68.2219C213.071 67.602 214.048 66.68 214.812 65.4559C215.59 64.216 215.98 62.6661 215.98 60.8062ZM240.441 27.3757V76.21H231.809V27.3757H240.441ZM265.928 39.5843V46.2609H244.873V39.5843H265.928ZM250.071 30.8094H258.703V65.1936C258.703 66.3541 258.878 67.2443 259.227 67.8643C259.593 68.4683 260.07 68.8816 260.658 69.1042C261.246 69.3268 261.898 69.438 262.613 69.438C263.154 69.438 263.647 69.3983 264.092 69.3188C264.553 69.2393 264.902 69.1678 265.141 69.1042L266.595 75.8523C266.134 76.0113 265.475 76.1861 264.616 76.3769C263.774 76.5676 262.74 76.6789 261.516 76.7107C259.354 76.7743 257.407 76.4484 255.674 75.7331C253.942 75.0018 252.567 73.8732 251.549 72.3471C250.548 70.821 250.055 68.9134 250.071 66.6243V30.8094ZM271.468 76.21V39.5843H280.1V76.21H271.468ZM275.808 34.3861C274.441 34.3861 273.264 33.9331 272.279 33.027C271.293 32.105 270.8 31.0002 270.8 29.7125C270.8 28.409 271.293 27.3042 272.279 26.3981C273.264 25.4761 274.441 25.0151 275.808 25.0151C277.191 25.0151 278.367 25.4761 279.337 26.3981C280.322 27.3042 280.815 28.409 280.815 29.7125C280.815 31.0002 280.322 32.105 279.337 33.027C278.367 33.9331 277.191 34.3861 275.808 34.3861ZM329.195 40.8004C328.973 38.7179 328.035 37.0965 326.381 35.936C324.744 34.7756 322.614 34.1954 319.991 34.1954C318.147 34.1954 316.565 34.4736 315.246 35.0299C313.927 35.5863 312.917 36.3414 312.218 37.2952C311.518 38.249 311.161 39.3379 311.145 40.5619C311.145 41.5793 311.375 42.4616 311.836 43.2087C312.313 43.9559 312.957 44.5917 313.768 45.1163C314.578 45.625 315.476 46.0542 316.462 46.4039C317.448 46.7536 318.441 47.0477 319.443 47.2862L324.021 48.4307C325.865 48.8599 327.637 49.4402 329.338 50.1714C331.055 50.9026 332.589 51.8246 333.94 52.9374C335.307 54.0502 336.388 55.3934 337.183 56.9672C337.978 58.5409 338.375 60.3849 338.375 62.4992C338.375 65.3606 337.644 67.8802 336.182 70.058C334.719 72.2199 332.605 73.9129 329.839 75.1369C327.089 76.3451 323.759 76.9492 319.848 76.9492C316.049 76.9492 312.75 76.361 309.952 75.1846C307.17 74.0083 304.993 72.2915 303.419 70.0341C301.861 67.7768 301.019 65.0267 300.891 61.7838H309.595C309.722 63.4848 310.246 64.8996 311.168 66.0282C312.09 67.1569 313.291 67.9994 314.769 68.5558C316.263 69.1121 317.932 69.3903 319.776 69.3903C321.7 69.3903 323.385 69.1042 324.832 68.5319C326.294 67.9438 327.439 67.133 328.265 66.0998C329.092 65.0506 329.513 63.8265 329.529 62.4276C329.513 61.1559 329.14 60.1068 328.408 59.2801C327.677 58.4376 326.652 57.7382 325.332 57.1818C324.029 56.6095 322.503 56.1008 320.754 55.6557L315.198 54.225C311.176 53.1918 307.997 51.6259 305.66 49.5276C303.339 47.4134 302.179 44.6076 302.179 41.1104C302.179 38.2331 302.958 35.7135 304.516 33.5516C306.09 31.3896 308.228 29.7125 310.93 28.5203C313.632 27.3122 316.693 26.7081 320.11 26.7081C323.576 26.7081 326.612 27.3122 329.219 28.5203C331.842 29.7125 333.901 31.3737 335.395 33.5039C336.889 35.6181 337.66 38.0503 337.708 40.8004H329.195ZM362.491 39.5843V46.2609H341.436V39.5843H362.491ZM346.634 30.8094H355.266V65.1936C355.266 66.3541 355.441 67.2443 355.79 67.8643C356.156 68.4683 356.633 68.8816 357.221 69.1042C357.809 69.3268 358.461 69.438 359.176 69.438C359.717 69.438 360.21 69.3983 360.655 69.3188C361.116 69.2393 361.466 69.1678 361.704 69.1042L363.159 75.8523C362.698 76.0113 362.038 76.1861 361.179 76.3769C360.337 76.5676 359.304 76.6789 358.08 76.7107C355.918 76.7743 353.97 76.4484 352.238 75.7331C350.505 75.0018 349.13 73.8732 348.112 72.3471C347.111 70.821 346.618 68.9134 346.634 66.6243V30.8094ZM383.614 76.9253C380.037 76.9253 376.937 76.1384 374.314 74.5647C371.691 72.9909 369.657 70.7892 368.21 67.9596C366.779 65.1301 366.064 61.8236 366.064 58.0402C366.064 54.2568 366.779 50.9424 368.21 48.0969C369.657 45.2514 371.691 43.0418 374.314 41.468C376.937 39.8943 380.037 39.1074 383.614 39.1074C387.191 39.1074 390.29 39.8943 392.913 41.468C395.536 43.0418 397.563 45.2514 398.994 48.0969C400.44 50.9424 401.164 54.2568 401.164 58.0402C401.164 61.8236 400.44 65.1301 398.994 67.9596C397.563 70.7892 395.536 72.9909 392.913 74.5647C390.29 76.1384 387.191 76.9253 383.614 76.9253ZM383.662 70.0103C385.601 70.0103 387.222 69.4778 388.526 68.4127C389.829 67.3317 390.799 65.8851 391.435 64.0729C392.087 62.2607 392.413 60.2419 392.413 58.0164C392.413 55.7749 392.087 53.7481 391.435 51.9359C390.799 50.1078 389.829 48.6533 388.526 47.5723C387.222 46.4914 385.601 45.9509 383.662 45.9509C381.674 45.9509 380.021 46.4914 378.702 47.5723C377.398 48.6533 376.421 50.1078 375.769 51.9359C375.133 53.7481 374.815 55.7749 374.815 58.0164C374.815 60.2419 375.133 62.2607 375.769 64.0729C376.421 65.8851 377.398 67.3317 378.702 68.4127C380.021 69.4778 381.674 70.0103 383.662 70.0103ZM406.811 76.21V39.5843H415.181V45.6886H415.562C416.23 43.5743 417.375 41.9449 418.996 40.8004C420.633 39.6399 422.501 39.0597 424.6 39.0597C425.076 39.0597 425.609 39.0836 426.197 39.1312C426.801 39.163 427.302 39.2187 427.699 39.2982V47.2385C427.334 47.1113 426.753 47 425.959 46.9047C425.18 46.7934 424.425 46.7378 423.693 46.7378C422.12 46.7378 420.705 47.0795 419.449 47.7631C418.209 48.4307 417.231 49.3607 416.516 50.5529C415.801 51.7452 415.443 53.1202 415.443 54.6781V76.21H406.811ZM446.462 76.9253C442.79 76.9253 439.618 76.1623 436.948 74.6362C434.293 73.0942 432.25 70.9164 430.819 68.1027C429.389 65.2731 428.673 61.9428 428.673 58.1117C428.673 54.3443 429.389 51.0378 430.819 48.1923C432.266 45.3309 434.285 43.1054 436.876 41.5157C439.467 39.9102 442.511 39.1074 446.009 39.1074C448.266 39.1074 450.396 39.473 452.399 40.2043C454.418 40.9196 456.198 42.0324 457.74 43.5425C459.298 45.0527 460.522 46.9762 461.412 49.313C462.303 51.6339 462.748 54.3999 462.748 57.611V60.2578H432.727V54.4396H454.473C454.458 52.7864 454.1 51.316 453.4 50.0283C452.701 48.7248 451.723 47.6995 450.468 46.9524C449.228 46.2052 447.781 45.8316 446.128 45.8316C444.363 45.8316 442.813 46.2609 441.478 47.1193C440.143 47.9618 439.102 49.0745 438.354 50.4575C437.623 51.8246 437.25 53.3269 437.234 54.9642V60.0432C437.234 62.1733 437.623 64.0014 438.402 65.5275C439.181 67.0376 440.27 68.1981 441.669 69.0088C443.068 69.8036 444.705 70.2011 446.581 70.2011C447.837 70.2011 448.973 70.0262 449.991 69.6765C451.008 69.3109 451.89 68.7783 452.637 68.0789C453.385 67.3794 453.949 66.5131 454.33 65.4798L462.39 66.3859C461.881 68.516 460.912 70.3759 459.481 71.9656C458.066 73.5393 456.254 74.7634 454.044 75.6377C451.835 76.4961 449.307 76.9253 446.462 76.9253Z" fill="#323232"/>
<path d="M510.269 40.8004C510.047 38.7179 509.109 37.0965 507.456 35.936C505.818 34.7756 503.688 34.1954 501.065 34.1954C499.221 34.1954 497.639 34.4736 496.32 35.0299C495.001 35.5863 493.991 36.3414 493.292 37.2952C492.592 38.249 492.235 39.3379 492.219 40.5619C492.219 41.5793 492.449 42.4616 492.91 43.2087C493.387 43.9559 494.031 44.5917 494.842 45.1163C495.652 45.625 496.55 46.0542 497.536 46.4039C498.522 46.7536 499.515 47.0477 500.517 47.2862L505.095 48.4307C506.939 48.8599 508.711 49.4402 510.412 50.1714C512.129 50.9026 513.663 51.8246 515.014 52.9374C516.381 54.0502 517.462 55.3934 518.257 56.9672C519.052 58.5409 519.449 60.3849 519.449 62.4992C519.449 65.3606 518.718 67.8802 517.256 70.058C515.793 72.2199 513.679 73.9129 510.913 75.1369C508.163 76.3451 504.833 76.9492 500.922 76.9492C497.123 76.9492 493.824 76.361 491.026 75.1846C488.245 74.0083 486.067 72.2915 484.493 70.0341C482.935 67.7768 482.093 65.0267 481.965 61.7838H490.669C490.796 63.4848 491.321 64.8996 492.243 66.0282C493.165 67.1569 494.365 67.9994 495.843 68.5558C497.337 69.1121 499.007 69.3903 500.851 69.3903C502.774 69.3903 504.459 69.1042 505.906 68.5319C507.368 67.9438 508.513 67.133 509.339 66.0998C510.166 65.0506 510.587 63.8265 510.603 62.4276C510.587 61.1559 510.214 60.1068 509.482 59.2801C508.751 58.4376 507.726 57.7382 506.406 57.1818C505.103 56.6095 503.577 56.1008 501.828 55.6557L496.272 54.225C492.25 53.1918 489.071 51.6259 486.734 49.5276C484.413 47.4134 483.253 44.6076 483.253 41.1104C483.253 38.2331 484.032 35.7135 485.59 33.5516C487.164 31.3896 489.302 29.7125 492.004 28.5203C494.706 27.3122 497.767 26.7081 501.184 26.7081C504.65 26.7081 507.686 27.3122 510.293 28.5203C512.916 29.7125 514.975 31.3737 516.469 33.5039C517.963 35.6181 518.734 38.0503 518.782 40.8004H510.269ZM530.641 89.9446C529.465 89.9446 528.376 89.8492 527.374 89.6584C526.389 89.4836 525.602 89.2769 525.014 89.0385L527.017 82.3142C528.272 82.6799 529.393 82.8547 530.379 82.8388C531.364 82.8229 532.231 82.5129 532.978 81.9089C533.741 81.3207 534.385 80.3351 534.909 78.9521L535.648 76.973L522.367 39.5843H531.523L539.964 67.2443H540.346L548.811 39.5843H557.991L543.326 80.6451C542.643 82.5845 541.737 84.2457 540.608 85.6287C539.48 87.0276 538.097 88.0926 536.459 88.8239C534.838 89.571 532.898 89.9446 530.641 89.9446ZM570.917 54.7496V76.21H562.286V39.5843H570.536V45.8078H570.965C571.808 43.7571 573.151 42.1277 574.995 40.9196C576.855 39.7115 579.152 39.1074 581.886 39.1074C584.414 39.1074 586.615 39.6479 588.491 40.7289C590.383 41.8098 591.845 43.3756 592.878 45.4263C593.928 47.4769 594.444 49.9648 594.428 52.8897V76.21H585.797V54.225C585.797 51.777 585.161 49.8614 583.889 48.4784C582.633 47.0954 580.892 46.4039 578.667 46.4039C577.157 46.4039 575.813 46.7378 574.637 47.4054C573.477 48.0572 572.563 49.003 571.895 50.2429C571.243 51.4829 570.917 52.9851 570.917 54.7496ZM617.501 76.9253C613.844 76.9253 610.705 76.1225 608.082 74.517C605.475 72.9114 603.464 70.6939 602.049 67.8643C600.65 65.0188 599.951 61.7441 599.951 58.0402C599.951 54.3204 600.666 51.0378 602.097 48.1923C603.528 45.3309 605.546 43.1054 608.153 41.5157C610.776 39.9102 613.876 39.1074 617.453 39.1074C620.426 39.1074 623.056 39.6558 625.346 40.7527C627.651 41.8337 629.487 43.3677 630.854 45.3547C632.221 47.3259 633 49.6309 633.19 52.2698H624.94C624.606 50.5052 623.812 49.0348 622.556 47.8585C621.316 46.6662 619.655 46.0701 617.572 46.0701C615.808 46.0701 614.258 46.547 612.922 47.5008C611.587 48.4387 610.546 49.7899 609.799 51.5544C609.067 53.3189 608.702 55.4332 608.702 57.8971C608.702 60.3929 609.067 62.5389 609.799 64.3352C610.53 66.1156 611.555 67.4907 612.875 68.4604C614.21 69.4142 615.776 69.8911 617.572 69.8911C618.844 69.8911 619.98 69.6526 620.982 69.1757C621.999 68.6829 622.85 67.9755 623.533 67.0535C624.217 66.1315 624.686 65.0108 624.94 63.6914H633.19C632.984 66.2826 632.221 68.5796 630.901 70.5826C629.582 72.5697 627.786 74.1275 625.512 75.2562C623.239 76.3689 620.569 76.9253 617.501 76.9253Z" fill="#2FB352"/>
</svg>
