<svg width="71" height="71" viewBox="0 0 71 71" fill="none" xmlns="http://www.w3.org/2000/svg">
<g filter="url(#filter0_d_3337_2514)">
<rect x="12.3046" y="0.452463" width="55.1084" height="55.1084" rx="11.7703" transform="rotate(12.4197 12.3046 0.452463)" fill="#EEFFEF" stroke="#43A047" stroke-width="0.759377"/>
<path d="M40.1155 52.7037L18.936 48.0395C17.5857 47.7421 16.7327 46.4093 17.0296 45.0608L23.4792 15.7744C23.776 14.4269 25.1101 13.5747 26.4604 13.8721L41.9382 17.2807L48.2921 27.21L43.0967 50.8014C42.7998 52.1499 41.4658 53.0011 40.1155 52.7037Z" fill="#43A047"/>
<path d="M48.292 27.21L40.1464 25.4162L41.938 17.2807L48.292 27.21Z" fill="#C8E6C9"/>
<path d="M40.1467 25.4163L46.5008 35.3447L48.2922 27.2101L40.1467 25.4163Z" fill="#2E7D32"/>
<path d="M39.1699 33.7291L27.7654 31.2175L26.1359 30.8587L25.7775 32.486L25.4191 34.1133L25.061 35.7396L24.7026 37.3669L24.3442 38.9942L23.9859 40.6215L23.6277 42.2478L38.2912 45.477L38.6494 43.8507L39.0077 42.2234L39.3661 40.5961L39.7245 38.9688L40.0826 37.3425L40.441 35.7152L40.7994 34.0879L39.1699 33.7291ZM27.407 32.8448L30.665 33.5623L30.3066 35.1896L27.0486 34.4721L27.407 32.8448ZM26.6905 36.0984L29.9485 36.8159L29.5901 38.4432L26.3321 37.7257L26.6905 36.0984ZM25.9737 39.353L29.2317 40.0705L28.8734 41.6978L25.6154 40.9803L25.9737 39.353ZM37.0199 43.4919L30.5029 42.0567L30.8612 40.4294L37.3783 41.8646L37.0199 43.4919ZM37.7366 40.2373L31.2196 38.8021L31.578 37.1748L38.095 38.61L37.7366 40.2373ZM38.4531 36.9837L31.9361 35.5485L32.2945 33.9212L38.8115 35.3564L38.4531 36.9837Z" fill="#E8F5E9"/>
</g>
<defs>
<filter id="filter0_d_3337_2514" x="2.32623" y="2.3262" width="68.1413" height="68.1413" filterUnits="userSpaceOnUse" color-interpolation-filters="sRGB">
<feFlood flood-opacity="0" result="BackgroundImageFix"/>
<feColorMatrix in="SourceAlpha" type="matrix" values="0 0 0 0 0 0 0 0 0 0 0 0 0 0 0 0 0 0 127 0" result="hardAlpha"/>
<feOffset dx="3.55305" dy="3.55305"/>
<feGaussianBlur stdDeviation="1.33239"/>
<feComposite in2="hardAlpha" operator="out"/>
<feColorMatrix type="matrix" values="0 0 0 0 0.0245007 0 0 0 0 0.384615 0 0 0 0 0.00554734 0 0 0 0.2 0"/>
<feBlend mode="normal" in2="BackgroundImageFix" result="effect1_dropShadow_3337_2514"/>
<feBlend mode="normal" in="SourceGraphic" in2="effect1_dropShadow_3337_2514" result="shape"/>
</filter>
</defs>
</svg>
